Coordinates
version=1
nRows=29
nColumns=22
inDegrees=yes

Units are S.I. units (second, meters, Newtons, ...)
If the header above contains a line with 'inDegrees', this indicates whether rotational values are in degrees (yes) or radians (no).

endheader
time	pelvis_tilt	pelvis_list	pelvis_rotation	pelvis_tx	pelvis_ty	pelvis_tz	hip_flexion_r	hip_adduction_r	hip_rotation_r	knee_angle_r	ankle_angle_r	subtalar_angle_r	hip_flexion_l	hip_adduction_l	hip_rotation_l	knee_angle_l	ankle_angle_l	subtalar_angle_l	lumbar_extension	lumbar_bending	lumbar_rotation
      4.86000000	     -1.57507186	      3.75764212	    226.11154070	     -0.44307943	      0.89118581	     -0.25571664	    -18.03400415	      1.17870804	     -6.08244577	    -20.44399678	      3.71600938	     11.19120865	     33.65259311	     -1.22442489	    -20.05041456	    -28.89527069	      2.58879801	    -18.57456469	     -1.45608073	     -3.40800902	      4.96770731
      4.87000000	     -1.27868377	      3.36149987	    226.73963298	     -0.44996620	      0.89272359	     -0.24460501	    -17.56548000	      0.51797822	     -6.24382455	    -22.50155226	      1.47477146	     11.83544939	     33.29090501	     -0.26185190	    -19.03153026	    -29.74660159	      2.53394832	    -18.74765896	     -1.28518724	     -4.06877941	      4.80959135
      4.88000000	     -1.10199492	      2.99570175	    227.30779123	     -0.45661912	      0.89454854	     -0.23376868	    -16.92279965	     -0.07801612	     -6.24309792	    -24.84981615	     -0.92343720	     12.32967388	     32.79276738	      0.55876182	    -18.11233575	    -30.48994409	      2.69082885	    -18.74432676	     -1.24689430	     -4.58490931	      4.71685948
      4.89000000	     -1.03692317	      2.67010107	    227.80583601	     -0.46301019	      0.89656442	     -0.22329438	    -16.07237153	     -0.60345632	     -6.08647791	    -27.49578208	     -3.44806735	     12.58479431	     32.17293795	      1.22122699	    -17.33343917	    -31.11216041	      3.00897013	    -18.63347839	     -1.32952126	     -4.95248264	      4.67826416
      4.90000000	     -1.05540753	      2.36672253	    228.18139505	     -0.46919902	      0.89870244	     -0.21326455	    -14.99838412	     -1.09007201	     -5.71980175	    -30.42973952	     -6.05580157	     12.62774122	     31.41673532	      1.72460058	    -16.78565538	    -31.57777492	      3.56816854	    -18.48743899	     -1.51768574	     -5.20979859	      4.71600144
      4.91000000	     -1.11731071	      2.18207623	    228.48202117	     -0.47502382	      0.90070651	     -0.20374388	    -13.57499793	     -1.48652122	     -5.22293313	    -33.65673404	     -8.70361845	     12.72232697	     30.68818345	      2.06654580	    -16.35663301	    -31.94340635	      4.16382737	    -18.22818205	     -1.71012909	     -5.31164671	      4.80999966
      4.92000000	     -1.19275553	      1.98514158	    228.67383159	     -0.48058010	      0.90268718	     -0.19467514	    -11.92510332	     -1.91100901	     -4.63278384	    -37.09512099	    -11.32836206	     12.50256639	     29.85644491	      2.33853228	    -16.17239973	    -32.13824252	      4.81328090	    -18.05925157	     -1.98338252	     -5.39052743	      4.94210746
      4.93000000	     -1.21012645	      1.86642425	    228.78068753	     -0.48581091	      0.90439757	     -0.18604669	     -9.93735670	     -2.33772696	     -3.95560025	    -40.70593090	    -13.80059645	     12.10396414	     29.07009775	      2.56799128	    -16.13012072	    -32.18463402	      5.53633927	    -17.89723641	     -2.19525057	     -5.43514320	      5.09048849
      4.94000000	     -1.17177719	      1.76134477	    228.83087093	     -0.49072869	      0.90591064	     -0.17777087	     -7.72133362	     -2.80000744	     -3.24120805	    -44.38093820	    -16.07522833	     11.61318904	     28.28638269	      2.80557647	    -16.23607205	    -32.10231171	      6.21622714	    -17.79474153	     -2.39945284	     -5.49726272	      5.24368458
      4.95000000	     -1.06501417	      1.68027535	    228.86643336	     -0.49535399	      0.90719534	     -0.16974768	     -5.31612740	     -3.27556998	     -2.49708105	    -48.02175361	    -18.02008415	     11.09393486	     27.53723337	      3.08063330	    -16.41651752	    -31.91663631	      6.86275798	    -17.73115906	     -2.56439951	     -5.58365644	      5.35819838
      4.96000000	     -0.91036397	      1.60795740	    228.92577211	     -0.49972894	      0.90832747	     -0.16187918	     -2.80919741	     -3.73737485	     -1.72996809	    -51.52968596	    -19.53164428	     10.63663398	     26.80359753	      3.40935860	    -16.59458545	    -31.64395834	      7.44116264	    -17.68682372	     -2.70698452	     -5.69544906	      5.42720206
      4.97000000	     -0.71977172	      1.57290024	    229.06435563	     -0.50387938	      0.90928935	     -0.15405977	     -0.23962092	     -4.13816655	     -0.96842243	    -54.83336113	    -20.48759566	     10.22095180	     26.12806037	      3.77929808	    -16.70222902	    -31.34295288	      8.00186465	    -17.64686681	     -2.79890778	     -5.80318306	      5.38685928
      4.98000000	     -0.53170062	      1.54706780	    229.30626369	     -0.50785536	      0.91021479	     -0.14621363	      2.29517364	     -4.46067757	     -0.21936749	    -57.86361240	    -20.88631850	      9.91944238	     25.45875501	      4.18863994	    -16.69002006	    -31.01856165	      8.48919676	    -17.59369245	     -2.88553865	     -5.90091171	      5.24910548
      4.99000000	     -0.35782152	      1.50359425	    229.67143913	     -0.51170844	      0.91118790	     -0.13825950	      4.72711902	     -4.72308487	      0.49593946	    -60.57977853	    -20.74705157	      9.76256453	     24.75411037	      4.64736192	    -16.55251844	    -30.66291975	      8.89529331	    -17.51561720	     -2.98840753	     -6.00335016	      4.98150925
      5.00000000	     -0.23283649	      1.51575975	    230.18635588	     -0.51540082	      0.91214373	     -0.13021142	      7.07753032	     -4.85217802	      1.14635658	    -62.96477614	    -20.14471224	      9.67043769	     24.08337067	      5.09077691	    -16.18412475	    -30.33987796	      9.28034597	    -17.42093732	     -3.07027225	     -6.02586975	      4.63426947
      5.01000000	     -0.15549294	      1.51093454	    230.84672704	     -0.51896607	      0.91319336	     -0.12200363	      9.26685088	     -4.92685549	      1.72053172	    -65.00244016	    -19.18689419	      9.69328487	     23.35335647	      5.55407119	    -15.66491816	    -30.00106410	      9.62180901	    -17.30866079	     -3.18674451	     -6.02171705	      4.16151760
      5.02000000	     -0.12899243	      1.50051503	    231.64298444	     -0.52237761	      0.91431961	     -0.11366239	     11.30382336	     -4.94887108	      2.22607755	    -66.69719471	    -17.98163467	      9.80655975	     22.56817645	      6.02169254	    -14.98899111	    -29.64338928	      9.93216764	    -17.18742630	     -3.33151918	     -5.97672498	      3.60107312
      5.03000000	     -0.15141312	      1.46791417	    232.56087387	     -0.52560642	      0.91552693	     -0.10520674	     13.17734445	     -4.94195334	      2.67876797	    -68.05633113	    -16.60626117	      9.98084714	     21.70522063	      6.49528803	    -14.18502576	    -29.24935189	     10.21283534	    -17.07070112	     -3.52120699	     -5.89842343	      2.96692450
      5.04000000	     -0.21076775	      1.41364922	    233.57551959	     -0.52864461	      0.91678359	     -0.09666372	     14.90355830	     -4.92169207	      3.10236467	    -69.09424874	    -15.11449430	     10.17259985	     20.76258092	      6.96873993	    -13.28964153	    -28.80471831	     10.48407755	    -16.96695686	     -3.74214975	     -5.79345491	      2.27730006
      5.05000000	     -0.28928213	      1.34327841	    234.65868575	     -0.53145987	      0.91802436	     -0.08812347	     16.51710922	     -4.89347929	      3.53770445	    -69.83879962	    -13.55323406	     10.35085012	     19.77013376	      7.44181840	    -12.30489582	    -28.32429910	     10.75667280	    -16.87634982	     -3.98832789	     -5.67320427	      1.59885158
      5.06000000	     -0.35694078	      1.26503273	    235.81689775	     -0.53403679	      0.91922644	     -0.07953285	     18.02906924	     -4.89534535	      3.97158560	    -70.28440194	    -11.94921648	     10.51448653	     18.73017085	      7.92824326	    -11.27288622	    -27.76676704	     10.94295544	    -16.80262764	     -4.22119820	     -5.55167108	      0.85517239
      5.07000000	     -0.42190318	      1.16560867	    237.01936200	     -0.53638585	      0.92037747	     -0.07096728	     19.43238323	     -4.91923441	      4.43739202	    -70.44945937	    -10.30968716	     10.57755547	     17.64494285	      8.41630296	    -10.19457149	    -27.16636190	     11.11704201	    -16.75092424	     -4.47014788	     -5.43480105	      0.11590823
      5.08000000	     -0.48119301	      1.02147853	    238.25813360	     -0.53851987	      0.92150852	     -0.06241090	     20.69893779	     -4.98931757	      4.92703210	    -70.33750231	     -8.65646845	     10.38565827	     16.48735412	      8.92004854	     -9.05394820	    -26.51401983	     11.26334997	    -16.74398138	     -4.75620799	     -5.33797358	     -0.61542040
      5.09000000	     -0.50242283	      0.90562355	    239.54292053	     -0.54044673	      0.92247873	     -0.05389143	     21.91244717	     -5.09419871	      5.42496695	    -69.96765016	     -7.00463943	     10.03984887	     15.37240285	      9.41512680	     -7.86473204	    -25.86420571	     11.35062917	    -16.75552098	     -4.98454478	     -5.25428228	     -1.36344595
      5.10000000	     -0.50814199	      0.78344093	    240.85714688	     -0.54223431	      0.92335305	     -0.04539226	     23.01530651	     -5.23328268	      5.92105562	    -69.33822312	     -5.35447328	      9.34766159	     14.24990237	      9.89234693	     -6.64884468	    -25.21828345	     11.46976693	    -16.81143519	     -5.20179369	     -5.18874250	     -2.11095956
      5.11000000	     -0.48925637	      0.68978748	    242.23867406	     -0.54382834	      0.92409895	     -0.03694415	     24.03979209	     -5.41053599	      6.36966771	    -68.45906641	     -3.80940475	      8.50912888	     13.17523564	     10.35655983	     -5.31215629	    -24.60340908	     11.49571253	    -16.88912184	     -5.38055904	     -5.13605418	     -2.89529438
      5.12000000	     -0.47042665	      0.61665974	    243.67401518	     -0.54531563	      0.92474706	     -0.02853098	     24.95217153	     -5.60392093	      6.75189524	    -67.33060813	     -2.32647413	      7.41988912	     12.12779844	     10.77331522	     -3.91497765	    -24.03031853	     11.53714705	    -17.00370115	     -5.53348536	     -5.08263809	     -3.70709901
      5.13000000	     -0.45919643	      0.57543190	    245.16448970	     -0.54671279	      0.92528386	     -0.02019615	     25.76215573	     -5.79526494	      7.05773671	    -65.96813458	     -0.91576556	      6.22341697	     11.13467901	     11.12845015	     -2.45108039	    -23.53100057	     11.59776060	    -17.13736820	     -5.66049012	     -5.02296253	     -4.54254695
      5.14000000	     -0.46575519	      0.56375396	    246.71229096	     -0.54803746	      0.92573230	     -0.01195556	     26.46192729	     -5.97403827	      7.26823184	    -64.37763369	      0.41605979	      5.01115744	     10.19347401	     11.41377823	     -0.92146769	    -23.10830187	     11.68142913	    -17.27091012	     -5.77077756	     -4.95207898	     -5.40986844
